<svg width="24" height="24" viewBox="0 0 24 24" fill="none" xmlns="http://www.w3.org/2000/svg">
<g id="menu-left-alt">
<path id="Vector" opacity="0.4" d="M16 7H3C2.448 7 2 6.552 2 6C2 5.448 2.448 5 3 5H16C16.552 5 17 5.448 17 6C17 6.552 16.552 7 16 7Z" fill="#F1665A"/>
<path id="Vector_2" d="M21 13H3C2.448 13 2 12.552 2 12C2 11.448 2.448 11 3 11H21C21.552 11 22 11.448 22 12C22 12.552 21.552 13 21 13Z" fill="#F1665A"/>
<path id="Vector_3" opacity="0.4" d="M12 19H3C2.448 19 2 18.552 2 18C2 17.448 2.448 17 3 17H12C12.552 17 13 17.448 13 18C13 18.552 12.552 19 12 19Z" fill="#F1665A"/>
</g>
</svg>
